# xmcd CD database file
#
# Track frame offsets:
#	150
#	18526
#	33602
#	53917
#	74693
#	91586
#	108406
#	126030
#	138794
#	157296
#	174139
#	191127
#
# Disc length: 2819 seconds
#
# Revision: 0
# Processed by: cddbd v1.4PL0 Copyright (c) Steve Scherf et al.
# Submitted via: CDex 1.40Release
#
DISCID=a40b010c
DTITLE=Kevin Fowler - High on the Hog
DYEAR=2002
DGENRE=Country
TTITLE0=There's a Fool Born Everyday
TTITLE1=Senorita Mas Fina
TTITLE2=Not Lovin' Anymore
TTITLE3=The Lord Loves the Drinkin' Man
TTITLE4=A Fool and His Heart
TTITLE5=Our Love is a Prison
TTITLE6=She Ain't Bad but She Ain't You
TTITLE7=Tall Drink of Water
TTITLE8=High on the Hog
TTITLE9=All the Tequila in Tijuana
TTITLE10=Ol' What's Her Name
TTITLE11=Fat Bottom Girls
EXTD=YEAR: 2002 ID3G: 2
EXTT0=
EXTT1=
EXTT2=
EXTT3=
EXTT4=
EXTT5=
EXTT6=
EXTT7=
EXTT8=
EXTT9=
EXTT10=
EXTT11=
PLAYORDER=
